# xmcd
#
# Track frame offsets:
#	183
#	16985
#	43593
#	58103
#	77845
#	103855
#	127248
#	149030
#	163300
#	186628
#	205405
#	224130
#
# Disc length: 3270 seconds
# Revision: 1
# Processed by: cddbd v1.5.2PL0 Copyright (c) Steve Scherf et al.
# Submitted via: dBpowerAMP V12.0
#
DISCID=cc0cc40c
DTITLE=Paul McCartney - Wings Greatest
DYEAR=1993
DGENRE=Pop
TTITLE0=Another Day
TTITLE1=Silly Love Songs
TTITLE2=Live And Let Die
TTITLE3=Junior's Farm
TTITLE4=With A Little Luck
TTITLE5=Band On The Run
TTITLE6=Admiral Halsey
TTITLE7=Hi, Hi, Hi!
TTITLE8=Let 'em In
TTITLE9=My Love
TTITLE10=Jet
TTITLE11=Mull Of Kintyre
EXTD=
EXTT0=
EXTT1=
EXTT2=
EXTT3=
EXTT4=
EXTT5=
EXTT6=
EXTT7=
EXTT8=
EXTT9=
EXTT10=
EXTT11=
PLAYORDER=
